<svg xmlns="http://www.w3.org/2000/svg" xmlns:xlink="http://www.w3.org/1999/xlink" width="500" zoomAndPan="magnify" viewBox="0 0 375 374.999991" height="500" preserveAspectRatio="xMidYMid meet" version="1.0"><defs><g/></defs><g fill="#ffffff" fill-opacity="1"><g transform="translate(62.701759, 242.064562)"><g><path d="M 64.453125 -143.3125 C 60.597656 -143.3125 57.066406 -142.03125 53.859375 -139.46875 C 50.660156 -136.90625 49.0625 -133.539062 49.0625 -129.375 C 49.0625 -126.8125 49.539062 -124.488281 50.5 -122.40625 C 51.625 -120.632812 53.707031 -118.785156 56.75 -116.859375 C 59.789062 -114.941406 63.113281 -113.097656 66.71875 -111.328125 C 70.332031 -109.566406 73.863281 -107.925781 77.3125 -106.40625 C 80.757812 -104.882812 83.441406 -103.722656 85.359375 -102.921875 C 90.972656 -100.359375 96.222656 -97.632812 101.109375 -94.75 C 106.003906 -91.863281 110.253906 -88.492188 113.859375 -84.640625 C 117.460938 -80.796875 120.304688 -76.347656 122.390625 -71.296875 C 124.484375 -66.242188 125.53125 -60.351562 125.53125 -53.625 C 125.53125 -44.488281 123.960938 -36.550781 120.828125 -29.8125 C 117.703125 -23.082031 113.453125 -17.515625 108.078125 -13.109375 C 102.710938 -8.703125 96.34375 -5.414062 88.96875 -3.25 C 81.59375 -1.082031 73.578125 0 64.921875 0 L 4.8125 0 L 4.8125 -37.03125 L 64.453125 -37.03125 C 69.097656 -37.03125 73.101562 -38.632812 76.46875 -41.84375 C 79.832031 -45.050781 81.515625 -49.140625 81.515625 -54.109375 C 81.515625 -56.828125 80.953125 -59.148438 79.828125 -61.078125 C 78.710938 -63.003906 77.269531 -64.644531 75.5 -66 C 73.738281 -67.363281 71.734375 -68.609375 69.484375 -69.734375 C 67.242188 -70.859375 65.003906 -71.898438 62.765625 -72.859375 C 60.203125 -73.984375 57.675781 -75.066406 55.1875 -76.109375 C 52.695312 -77.148438 50.09375 -78.3125 47.375 -79.59375 C 41.757812 -81.84375 36.382812 -84.410156 31.25 -87.296875 C 26.125 -90.179688 21.597656 -93.585938 17.671875 -97.515625 C 13.742188 -101.441406 10.617188 -105.96875 8.296875 -111.09375 C 5.972656 -116.226562 4.8125 -122.160156 4.8125 -128.890625 C 4.8125 -136.910156 6.535156 -144.046875 9.984375 -150.296875 C 13.429688 -156.546875 17.957031 -161.875 23.5625 -166.28125 C 29.175781 -170.6875 35.550781 -174.09375 42.6875 -176.5 C 49.820312 -178.90625 57.078125 -180.1875 64.453125 -180.34375 L 125.53125 -180.34375 L 125.53125 -143.3125 Z M 64.453125 -143.3125 "/></g></g></g><g fill="#ffffff" fill-opacity="1"><g transform="translate(192.523791, 242.064562)"><g><path d="M 95.21875 -141.390625 C 87.6875 -141.390625 81.035156 -139.90625 75.265625 -136.9375 C 69.492188 -133.976562 64.644531 -130.09375 60.71875 -125.28125 C 56.789062 -120.46875 53.785156 -115.015625 51.703125 -108.921875 C 49.617188 -102.835938 48.578125 -96.671875 48.578125 -90.421875 C 48.578125 -83.847656 49.65625 -77.429688 51.8125 -71.171875 C 53.976562 -64.921875 57.101562 -59.390625 61.1875 -54.578125 C 65.28125 -49.773438 70.171875 -45.890625 75.859375 -42.921875 C 81.554688 -39.953125 88.007812 -38.46875 95.21875 -38.46875 L 130.09375 -38.46875 L 130.09375 0 L 93.78125 0 C 80.3125 0 68.085938 -2.484375 57.109375 -7.453125 C 46.128906 -12.421875 36.75 -19.070312 28.96875 -27.40625 C 21.195312 -35.75 15.144531 -45.367188 10.8125 -56.265625 C 6.488281 -67.171875 4.328125 -78.554688 4.328125 -90.421875 C 4.328125 -101.960938 6.453125 -113.140625 10.703125 -123.953125 C 14.953125 -134.773438 21.003906 -144.351562 28.859375 -152.6875 C 36.710938 -161.03125 46.25 -167.722656 57.46875 -172.765625 C 68.695312 -177.816406 81.28125 -180.34375 95.21875 -180.34375 L 130.09375 -180.34375 L 130.09375 -141.390625 Z M 95.21875 -141.390625 "/></g></g></g><g fill="#000000" fill-opacity="1"><g transform="translate(47.55359, 254.729247)"><g><path d="M 64.453125 -143.34375 C 60.609375 -143.34375 57.082031 -142.054688 53.875 -139.484375 C 50.664062 -136.921875 49.0625 -133.554688 49.0625 -129.390625 C 49.0625 -126.828125 49.539062 -124.503906 50.5 -122.421875 C 51.625 -120.648438 53.707031 -118.800781 56.75 -116.875 C 59.800781 -114.957031 63.128906 -113.113281 66.734375 -111.34375 C 70.347656 -109.582031 73.875 -107.941406 77.3125 -106.421875 C 80.757812 -104.898438 83.445312 -103.738281 85.375 -102.9375 C 90.988281 -100.375 96.238281 -97.644531 101.125 -94.75 C 106.019531 -91.863281 110.269531 -88.5 113.875 -84.65625 C 117.476562 -80.8125 120.320312 -76.363281 122.40625 -71.3125 C 124.5 -66.257812 125.546875 -60.363281 125.546875 -53.625 C 125.546875 -44.488281 123.976562 -36.550781 120.84375 -29.8125 C 117.71875 -23.082031 113.46875 -17.515625 108.09375 -13.109375 C 102.726562 -8.703125 96.359375 -5.414062 88.984375 -3.25 C 81.609375 -1.082031 73.59375 0 64.9375 0 L 4.8125 0 L 4.8125 -37.03125 L 64.453125 -37.03125 C 69.097656 -37.03125 73.101562 -38.632812 76.46875 -41.84375 C 79.84375 -45.050781 81.53125 -49.140625 81.53125 -54.109375 C 81.53125 -56.835938 80.96875 -59.160156 79.84375 -61.078125 C 78.71875 -63.003906 77.273438 -64.648438 75.515625 -66.015625 C 73.753906 -67.378906 71.75 -68.617188 69.5 -69.734375 C 67.257812 -70.859375 65.015625 -71.90625 62.765625 -72.875 C 60.203125 -74 57.675781 -75.082031 55.1875 -76.125 C 52.707031 -77.164062 50.101562 -78.328125 47.375 -79.609375 C 41.769531 -81.847656 36.398438 -84.410156 31.265625 -87.296875 C 26.128906 -90.179688 21.597656 -93.585938 17.671875 -97.515625 C 13.742188 -101.453125 10.617188 -105.984375 8.296875 -111.109375 C 5.972656 -116.242188 4.8125 -122.175781 4.8125 -128.90625 C 4.8125 -136.925781 6.535156 -144.0625 9.984375 -150.3125 C 13.429688 -156.5625 17.957031 -161.890625 23.5625 -166.296875 C 29.175781 -170.710938 35.550781 -174.125 42.6875 -176.53125 C 49.820312 -178.9375 57.078125 -180.21875 64.453125 -180.375 L 125.546875 -180.375 L 125.546875 -143.34375 Z M 64.453125 -143.34375 "/></g></g></g><g fill="#000000" fill-opacity="1"><g transform="translate(177.424692, 254.729247)"><g><path d="M 95.234375 -141.40625 C 87.703125 -141.40625 81.050781 -139.921875 75.28125 -136.953125 C 69.507812 -133.992188 64.65625 -130.109375 60.71875 -125.296875 C 56.789062 -120.484375 53.785156 -115.03125 51.703125 -108.9375 C 49.617188 -102.851562 48.578125 -96.679688 48.578125 -90.421875 C 48.578125 -83.847656 49.660156 -77.4375 51.828125 -71.1875 C 53.992188 -64.9375 57.117188 -59.40625 61.203125 -54.59375 C 65.296875 -49.78125 70.1875 -45.890625 75.875 -42.921875 C 81.570312 -39.960938 88.023438 -38.484375 95.234375 -38.484375 L 130.109375 -38.484375 L 130.109375 0 L 93.796875 0 C 80.328125 0 68.097656 -2.484375 57.109375 -7.453125 C 46.128906 -12.421875 36.75 -19.070312 28.96875 -27.40625 C 21.195312 -35.75 15.144531 -45.367188 10.8125 -56.265625 C 6.488281 -67.171875 4.328125 -78.554688 4.328125 -90.421875 C 4.328125 -101.972656 6.453125 -113.160156 10.703125 -123.984375 C 14.953125 -134.804688 21.003906 -144.382812 28.859375 -152.71875 C 36.710938 -161.050781 46.25 -167.742188 57.46875 -172.796875 C 68.695312 -177.847656 81.285156 -180.375 95.234375 -180.375 L 130.109375 -180.375 L 130.109375 -141.40625 Z M 95.234375 -141.40625 "/></g></g></g></svg>